<?xml version="1.0" encoding="utf-8"?>
<!-- Generator: Adobe Illustrator 17.0.0, SVG Export Plug-In . SVG Version: 6.00 Build 0)  -->
<!DOCTYPE svg PUBLIC "-//W3C//DTD SVG 1.1//EN" "http://www.w3.org/Graphics/SVG/1.1/DTD/svg11.dtd">
<svg version="1.1" id="图层_1" xmlns="http://www.w3.org/2000/svg" xmlns:xlink="http://www.w3.org/1999/xlink" x="0px" y="0px"
	 width="50px" height="50px" viewBox="0 0 50 50" enable-background="new 0 0 50 50" xml:space="preserve">
<g>
	<path fill="#161616" d="M47.888,22.919H37.485c-1.144,0-2.081,0.936-2.081,2.081c0,1.144,0.936,2.081,2.081,2.081h10.404
		c1.144,0,2.081-0.936,2.081-2.081S49.033,22.919,47.888,22.919z"/>
	<path fill="#9F9E9F" d="M14.596,25c0-1.144-0.936-2.081-2.081-2.081H2.112c-1.144,0-2.081,0.936-2.081,2.081
		c0,1.144,0.936,2.081,2.081,2.081h10.404C13.66,27.081,14.596,26.144,14.596,25z"/>
	<path fill="#585959" d="M25,35.404c-1.144,0-2.081,0.936-2.081,2.081v10.404c0,1.144,0.936,2.081,2.081,2.081
		c1.144,0,2.081-0.936,2.081-2.081V37.485C27.081,36.34,26.144,35.404,25,35.404z"/>
	<path fill="#E9E8E8" d="M25,0.031c-1.144,0-2.081,0.936-2.081,2.081v10.404c0,1.144,0.936,2.081,2.081,2.081
		c1.144,0,2.081-0.936,2.081-2.081V2.112C27.081,0.967,26.144,0.031,25,0.031z"/>
	<path fill="#040000" d="M34.012,19.798c0.572,1.001,1.847,1.339,2.848,0.767l9.012-5.202c1.001-0.572,1.339-1.847,0.767-2.848
		s-1.847-1.339-2.848-0.767L34.78,16.95C33.778,17.535,33.44,18.797,34.012,19.798z"/>
	<path fill="#888888" d="M15.988,30.202c-0.572-1.001-1.847-1.339-2.848-0.767l-9.012,5.202c-1.001,0.572-1.339,1.847-0.767,2.848
		c0.572,1.001,1.847,1.339,2.848,0.767l9.012-5.202C16.222,32.465,16.56,31.203,15.988,30.202z"/>
	<path fill="#454444" d="M33.05,34.767c-0.572-1.001-1.847-1.339-2.848-0.767c-1.001,0.572-1.339,1.847-0.767,2.848l5.202,9.012
		c0.572,1.001,1.847,1.339,2.848,0.767c1.001-0.572,1.339-1.847,0.767-2.848L33.05,34.767z"/>
	<path fill="#D4D4D4" d="M15.363,4.14c-0.572-1.001-1.847-1.339-2.848-0.767s-1.339,1.847-0.767,2.848l5.202,9.012
		c0.572,1.001,1.847,1.339,2.848,0.767c1.001-0.572,1.339-1.847,0.767-2.848L15.363,4.14z"/>
	<path fill="#FDFEFE" d="M30.202,15.988c1.001,0.572,2.263,0.234,2.848-0.767l5.202-9.012c0.572-1.001,0.234-2.263-0.767-2.848
		c-1.001-0.572-2.263-0.234-2.848,0.767l-5.202,9.012C28.862,14.141,29.201,15.415,30.202,15.988z"/>
	<path fill="#767677" d="M19.798,34.012c-1.001-0.572-2.263-0.234-2.848,0.767l-5.202,9.012c-0.572,1.001-0.234,2.263,0.767,2.848
		c1.001,0.572,2.263,0.234,2.848-0.767l5.202-9.012C21.138,35.859,20.799,34.585,19.798,34.012z"/>
	<path fill="#2A2A2A" d="M45.86,34.637l-9.012-5.202c-1.001-0.572-2.263-0.234-2.848,0.767c-0.572,1.001-0.234,2.263,0.767,2.848
		l9.012,5.202c1.001,0.572,2.263,0.234,2.848-0.767C47.199,36.483,46.861,35.222,45.86,34.637z"/>
	<path fill="#B1B1B1" d="M4.14,15.363l9.012,5.202c1.001,0.572,2.263,0.234,2.848-0.767c0.585-1.001,0.234-2.263-0.767-2.848
		l-9.012-5.202c-1.001-0.572-2.263-0.234-2.848,0.767C2.801,13.517,3.139,14.778,4.14,15.363z"/>
</g>
</svg>
